<?xml version="1.0" encoding="UTF-8" standalone="no"?>
<!-- Created with Inkscape (http://www.inkscape.org/) -->

<svg
   width="297mm"
   height="210mm"
   viewBox="0 0 297 210"
   version="1.1"
   id="svg1"
   inkscape:version="1.4 (e7c3feb100, 2024-10-09)"
   sodipodi:docname="zik-splash.svg"
   inkscape:export-filename="zik-splash.png"
   inkscape:export-xdpi="96"
   inkscape:export-ydpi="96"
   xmlns:inkscape="http://www.inkscape.org/namespaces/inkscape"
   xmlns:sodipodi="http://sodipodi.sourceforge.net/DTD/sodipodi-0.dtd"
   xmlns="http://www.w3.org/2000/svg"
   xmlns:svg="http://www.w3.org/2000/svg">
  <sodipodi:namedview
     id="namedview1"
     pagecolor="#ff00aa"
     bordercolor="#000000"
     borderopacity="0.25"
     inkscape:showpageshadow="2"
     inkscape:pageopacity="0.0"
     inkscape:pagecheckerboard="0"
     inkscape:deskcolor="#d1d1d1"
     inkscape:document-units="mm"
     inkscape:zoom="0.67526655"
     inkscape:cx="404.2848"
     inkscape:cy="319.87369"
     inkscape:window-width="1920"
     inkscape:window-height="1011"
     inkscape:window-x="0"
     inkscape:window-y="0"
     inkscape:window-maximized="1"
     inkscape:current-layer="layer1" />
  <defs
     id="defs1">
    <rect
       x="103.66277"
       y="121.43353"
       width="1132.8859"
       height="771.54718"
       id="rect1" />
    <clipPath
       id="presentation_clip_path"
       clipPathUnits="userSpaceOnUse">
   <rect
   x="0"
   y="0"
   width="2311"
   height="2667"
   id="rect2" />

  </clipPath>
  </defs>
  <g
     inkscape:label="Calque 1"
     inkscape:groupmode="layer"
     id="layer1">
    <g
       id="g3"
       transform="matrix(0.23886831,0,0,0.23886831,113.02806,80.350898)">
      <text
         xml:space="preserve"
         transform="matrix(0.26458333,0,0,0.26458333,-30.227514,-15.456877)"
         id="text1"
         style="font-weight:300;font-size:600px;font-family:Cantarell;-inkscape-font-specification:'Cantarell Light';text-align:end;letter-spacing:0px;writing-mode:lr-tb;direction:ltr;white-space:pre;shape-inside:url(#rect1);display:inline;fill:#c20053;stroke-width:0.670894"
         x="-39.973274"
         y="0"
         inkscape:label="text1"><tspan
           x="127.70587"
           y="676.43359"
           id="tspan6"><tspan
             style="font-weight:bold;font-family:Serif;-inkscape-font-specification:'Serif, Bold';text-align:center;text-anchor:middle;fill:#ffffff"
             id="tspan3">z</tspan><tspan
             style="font-weight:bold;font-family:Sans;-inkscape-font-specification:'Sans, Bold'"
             id="tspan4">𝄢</tspan><tspan
             style="font-weight:bold;font-family:Serif;-inkscape-font-specification:'Serif, Bold';text-align:center;text-anchor:middle;fill:#ffffff"
             id="tspan5">k</tspan></tspan></text>
      <g
         id="g2"
         transform="matrix(4.6530994,0,0,4.6530994,-645.08978,-707.65303)">
        <path
           fill="#000000"
           stroke="none"
           d="m 165.56885,170.27333 c 0,0.42 -0.14,0.83 -0.4,1.2 -0.26,0.37 -0.64,0.67 -1.1,0.88 -0.46,0.21 -0.97,0.32 -1.49,0.32 -0.53,0 -1.05,-0.11 -1.5,-0.32 -0.45,-0.21 -0.83,-0.51 -1.1,-0.88 -0.27,-0.37 -0.46,-0.59 -0.75,-1.45 -0.32,-1.22 -0.35,-1.7 0.39,-3.24 1.21,-1.76 1.43,-1.91 2.94,-2.83 1.54,-0.74 1.93,-0.93 4.04,-0.97 2.78,0.23 3.17,0.65 4.79,1.68 1.27,1.15 1.33,1.21 2.06,2.32 0.75,1.54 0.8,1.82 1.08,3.55 0.1,2.16 -0.13,2.78 -0.74,4.18 -0.66,1.59 -0.66,1.46 -1.49,2.67 -0.94,1.33 -2.55,3.15 -4.01,4.37 -1.87,1.53 -3.28,2.52 -5.27,3.73 -1.48,0.91 -2.97,1.75 -3.52,1.74 -0.24,0 -0.31,-0.23 -0.19,-0.41 0.39,-0.56 0.13,-0.45 1.77,-1.64 1.63,-1.32 2.17,-1.68 3.96,-3.45 1.94,-2.13 2.12,-2.39 3.4,-4.41 1.02,-1.94 1.59,-2.95 1.82,-6.13 0.05,-2.47 -0.08,-2.95 -0.82,-4.85 -0.65,-1.56 -2.3,-2.44 -4.3,-2.26 -1.74,0.39 -2.96,0.96 -3.96,2.39 -0.23,0.51 -0.61,1.38 0.03,1.7 0.66,-0.18 0.84,-0.3 1.37,-0.3 0.52,0 1.03,0.1 1.49,0.32 0.46,0.22 0.84,0.52 1.1,0.89 0.26,0.37 0.4,0.78 0.4,1.19 z"
           id="path71"
           style="vector-effect:non-scaling-stroke;fill:#ffffff;stroke:#ffffff;stroke-width:0.264583;stroke-dasharray:none;stroke-opacity:1;-inkscape-stroke:hairline" />
        <circle
           style="vector-effect:non-scaling-stroke;fill:#ffffff;stroke:#ffffff;stroke-width:0.264583;stroke-dasharray:none;stroke-opacity:0;-inkscape-stroke:hairline"
           id="path4"
           cx="177.54808"
           cy="173.95804"
           r="2.0243495" />
        <circle
           style="vector-effect:non-scaling-stroke;fill:#ffffff;stroke:#ffffff;stroke-width:0.264583;stroke-dasharray:none;stroke-opacity:0;-inkscape-stroke:hairline"
           id="path4-2"
           cx="177.54808"
           cy="168.44629"
           r="2.0243495" />
      </g>
    </g>
  </g>
</svg>
